<?xml version="1.0" encoding="UTF-8" standalone="no"?>
<!DOCTYPE svg PUBLIC "-//W3C//DTD SVG 1.1//EN"
 "http://www.w3.org/Graphics/SVG/1.1/DTD/svg11.dtd">
<!-- Generated by graphviz version 2.43.0 (0)
 -->
<!-- Title: Editor Pages: 1 -->
<svg width="425pt" height="944pt"
 viewBox="0.00 0.00 425.00 944.00" xmlns="http://www.w3.org/2000/svg" xmlns:xlink="http://www.w3.org/1999/xlink">
<g id="graph0" class="graph" transform="scale(1 1) rotate(0) translate(4 940)">
<title>Editor</title>
<!-- Node1 -->
<g id="node1" class="node">
<title>Node1</title>
<g id="a_node1"><a xlink:title=" ">
<polygon fill="#bfbfbf" stroke="black" points="123.5,-0.5 123.5,-123.5 240.5,-123.5 240.5,-0.5 123.5,-0.5"/>
<text text-anchor="middle" x="182" y="-111.5" font-family="Helvetica,sans-Serif" font-size="10.00">Editor</text>
<polyline fill="none" stroke="black" points="123.5,-104.5 240.5,-104.5 "/>
<text text-anchor="middle" x="182" y="-92.5" font-family="Helvetica,sans-Serif" font-size="10.00"> </text>
<polyline fill="none" stroke="black" points="123.5,-85.5 240.5,-85.5 "/>
<text text-anchor="start" x="131.5" y="-73.5" font-family="Helvetica,sans-Serif" font-size="10.00">+ Editor()</text>
<text text-anchor="start" x="131.5" y="-62.5" font-family="Helvetica,sans-Serif" font-size="10.00">+ open_file()</text>
<text text-anchor="start" x="131.5" y="-51.5" font-family="Helvetica,sans-Serif" font-size="10.00">+ create_new_tab()</text>
<text text-anchor="start" x="131.5" y="-40.5" font-family="Helvetica,sans-Serif" font-size="10.00">+ change_focus_to()</text>
<text text-anchor="start" x="131.5" y="-29.5" font-family="Helvetica,sans-Serif" font-size="10.00">+ close_tab()</text>
<text text-anchor="start" x="131.5" y="-18.5" font-family="Helvetica,sans-Serif" font-size="10.00">+ start()</text>
<text text-anchor="start" x="131.5" y="-7.5" font-family="Helvetica,sans-Serif" font-size="10.00">+ stop()</text>
</a>
</g>
</g>
<!-- Node2 -->
<g id="node2" class="node">
<title>Node2</title>
<g id="a_node2"><a xlink:title=" ">
<polygon fill="none" stroke="#bfbfbf" points="102,-287.5 102,-344.5 230,-344.5 230,-287.5 102,-287.5"/>
<text text-anchor="middle" x="166" y="-332.5" font-family="Helvetica,sans-Serif" font-size="10.00">std::shared_ptr&lt; Tab &gt;</text>
<polyline fill="none" stroke="#bfbfbf" points="102,-325.5 230,-325.5 "/>
<text text-anchor="middle" x="166" y="-313.5" font-family="Helvetica,sans-Serif" font-size="10.00"> </text>
<polyline fill="none" stroke="#bfbfbf" points="102,-306.5 230,-306.5 "/>
<text text-anchor="start" x="110" y="-294.5" font-family="Helvetica,sans-Serif" font-size="10.00">+ operator&#45;&gt;()</text>
</a>
</g>
</g>
<!-- Node2&#45;&gt;Node1 -->
<g id="edge1" class="edge">
<title>Node2&#45;&gt;Node1</title>
<path fill="none" stroke="#404040" d="M167.71,-287.39C169.5,-258.41 172.42,-211.5 175,-171 175.73,-159.59 176.5,-147.5 177.27,-135.7"/>
<polygon fill="none" stroke="#404040" points="177.28,-135.52 173.67,-129.28 178.05,-123.55 181.66,-129.79 177.28,-135.52"/>
<text text-anchor="middle" x="208.5" y="-203" font-family="Helvetica,sans-Serif" font-size="10.00"> +current_tab</text>
</g>
<!-- Node10 -->
<g id="node10" class="node">
<title>Node10</title>
<g id="a_node10"><a xlink:title=" ">
<polygon fill="none" stroke="#bfbfbf" points="251,-171.5 251,-239.5 385,-239.5 385,-171.5 251,-171.5"/>
<text text-anchor="start" x="259" y="-227.5" font-family="Helvetica,sans-Serif" font-size="10.00">std::vector&lt; std::shared</text>
<text text-anchor="middle" x="318" y="-216.5" font-family="Helvetica,sans-Serif" font-size="10.00">_ptr&lt; Tab &gt; &gt;</text>
<polyline fill="none" stroke="#bfbfbf" points="251,-209.5 385,-209.5 "/>
<text text-anchor="middle" x="318" y="-197.5" font-family="Helvetica,sans-Serif" font-size="10.00"> </text>
<polyline fill="none" stroke="#bfbfbf" points="251,-190.5 385,-190.5 "/>
<text text-anchor="middle" x="318" y="-178.5" font-family="Helvetica,sans-Serif" font-size="10.00"> </text>
</a>
</g>
</g>
<!-- Node2&#45;&gt;Node10 -->
<g id="edge12" class="edge">
<title>Node2&#45;&gt;Node10</title>
<path fill="none" stroke="#404040" d="M204.75,-287.34C222.05,-274.99 242.76,-260.2 261.72,-246.67"/>
<polygon fill="none" stroke="#404040" points="261.98,-246.49 264.54,-239.75 271.74,-239.52 269.18,-246.26 261.98,-246.49"/>
<text text-anchor="middle" x="271" y="-261" font-family="Helvetica,sans-Serif" font-size="10.00"> +elements</text>
</g>
<!-- Node3 -->
<g id="node3" class="node">
<title>Node3</title>
<g id="a_node3"><a xlink:href="../../d9/d4b/class_tab.html" target="_top" xlink:title=" ">
<polygon fill="none" stroke="black" points="113,-392.5 113,-493.5 219,-493.5 219,-392.5 113,-392.5"/>
<text text-anchor="middle" x="166" y="-481.5" font-family="Helvetica,sans-Serif" font-size="10.00">Tab</text>
<polyline fill="none" stroke="black" points="113,-474.5 219,-474.5 "/>
<text text-anchor="middle" x="166" y="-462.5" font-family="Helvetica,sans-Serif" font-size="10.00"> </text>
<polyline fill="none" stroke="black" points="113,-455.5 219,-455.5 "/>
<text text-anchor="start" x="121" y="-443.5" font-family="Helvetica,sans-Serif" font-size="10.00">+ Tab()</text>
<text text-anchor="start" x="121" y="-432.5" font-family="Helvetica,sans-Serif" font-size="10.00">+ Tab()</text>
<text text-anchor="start" x="121" y="-421.5" font-family="Helvetica,sans-Serif" font-size="10.00">+ save()</text>
<text text-anchor="start" x="121" y="-410.5" font-family="Helvetica,sans-Serif" font-size="10.00">+ add_figure()</text>
<text text-anchor="start" x="121" y="-399.5" font-family="Helvetica,sans-Serif" font-size="10.00">+ remove_figure()</text>
</a>
</g>
</g>
<!-- Node3&#45;&gt;Node2 -->
<g id="edge2" class="edge">
<title>Node3&#45;&gt;Node2</title>
<path fill="none" stroke="#404040" d="M166,-392.24C166,-380.46 166,-368.06 166,-356.8"/>
<polygon fill="none" stroke="#404040" points="166,-356.66 162,-350.66 166,-344.66 170,-350.66 166,-356.66"/>
<text text-anchor="middle" x="178.5" y="-366" font-family="Helvetica,sans-Serif" font-size="10.00"> +ptr</text>
</g>
<!-- Node4 -->
<g id="node4" class="node">
<title>Node4</title>
<g id="a_node4"><a xlink:title=" ">
<polygon fill="none" stroke="#bfbfbf" points="99,-541.5 99,-609.5 233,-609.5 233,-541.5 99,-541.5"/>
<text text-anchor="start" x="107" y="-597.5" font-family="Helvetica,sans-Serif" font-size="10.00">std::vector&lt; std::shared</text>
<text text-anchor="middle" x="166" y="-586.5" font-family="Helvetica,sans-Serif" font-size="10.00">_ptr&lt; Figure &gt; &gt;</text>
<polyline fill="none" stroke="#bfbfbf" points="99,-579.5 233,-579.5 "/>
<text text-anchor="middle" x="166" y="-567.5" font-family="Helvetica,sans-Serif" font-size="10.00"> </text>
<polyline fill="none" stroke="#bfbfbf" points="99,-560.5 233,-560.5 "/>
<text text-anchor="middle" x="166" y="-548.5" font-family="Helvetica,sans-Serif" font-size="10.00"> </text>
</a>
</g>
</g>
<!-- Node4&#45;&gt;Node3 -->
<g id="edge3" class="edge">
<title>Node4&#45;&gt;Node3</title>
<path fill="none" stroke="#404040" d="M166,-541.23C166,-530.47 166,-518.17 166,-506.02"/>
<polygon fill="none" stroke="#404040" points="166,-505.98 162,-499.98 166,-493.98 170,-499.98 166,-505.98"/>
<text text-anchor="middle" x="190.5" y="-515" font-family="Helvetica,sans-Serif" font-size="10.00"> +content</text>
</g>
<!-- Node5 -->
<g id="node5" class="node">
<title>Node5</title>
<g id="a_node5"><a xlink:title=" ">
<polygon fill="none" stroke="#bfbfbf" points="61,-668.5 61,-725.5 203,-725.5 203,-668.5 61,-668.5"/>
<text text-anchor="middle" x="132" y="-713.5" font-family="Helvetica,sans-Serif" font-size="10.00">std::shared_ptr&lt; Figure &gt;</text>
<polyline fill="none" stroke="#bfbfbf" points="61,-706.5 203,-706.5 "/>
<text text-anchor="middle" x="132" y="-694.5" font-family="Helvetica,sans-Serif" font-size="10.00"> </text>
<polyline fill="none" stroke="#bfbfbf" points="61,-687.5 203,-687.5 "/>
<text text-anchor="start" x="69" y="-675.5" font-family="Helvetica,sans-Serif" font-size="10.00">+ operator&#45;&gt;()</text>
</a>
</g>
</g>
<!-- Node5&#45;&gt;Node4 -->
<g id="edge4" class="edge">
<title>Node5&#45;&gt;Node4</title>
<path fill="none" stroke="#404040" d="M127.1,-668.3C125.91,-655.73 125.96,-640.84 130,-628 130.81,-625.42 131.8,-622.86 132.93,-620.34"/>
<polygon fill="none" stroke="#404040" points="133.02,-620.18 132.29,-613 138.64,-609.57 139.36,-616.75 133.02,-620.18"/>
<text text-anchor="middle" x="159" y="-636.5" font-family="Helvetica,sans-Serif" font-size="10.00"> +elements</text>
</g>
<!-- Node6 -->
<g id="node6" class="node">
<title>Node6</title>
<g id="a_node6"><a xlink:href="../../db/db9/class_figure.html" target="_top" xlink:title=" ">
<polygon fill="none" stroke="black" points="136.5,-773.5 136.5,-830.5 207.5,-830.5 207.5,-773.5 136.5,-773.5"/>
<text text-anchor="middle" x="172" y="-818.5" font-family="Helvetica,sans-Serif" font-size="10.00">Figure</text>
<polyline fill="none" stroke="black" points="136.5,-811.5 207.5,-811.5 "/>
<text text-anchor="middle" x="172" y="-799.5" font-family="Helvetica,sans-Serif" font-size="10.00"> </text>
<polyline fill="none" stroke="black" points="136.5,-792.5 207.5,-792.5 "/>
<text text-anchor="start" x="144.5" y="-780.5" font-family="Helvetica,sans-Serif" font-size="10.00">+ change()</text>
</a>
</g>
</g>
<!-- Node6&#45;&gt;Node5 -->
<g id="edge5" class="edge">
<title>Node6&#45;&gt;Node5</title>
<path fill="none" stroke="#404040" d="M161.28,-773.4C156.93,-762.2 151.83,-749.06 147.11,-736.92"/>
<polygon fill="none" stroke="#404040" points="147.09,-736.86 141.19,-732.72 142.75,-725.68 148.65,-729.82 147.09,-736.86"/>
<text text-anchor="middle" x="166.5" y="-747" font-family="Helvetica,sans-Serif" font-size="10.00"> +ptr</text>
</g>
<!-- Node7 -->
<g id="node7" class="node">
<title>Node7</title>
<g id="a_node7"><a xlink:title="STL class.">
<polygon fill="none" stroke="#bfbfbf" points="0,-773.5 0,-830.5 118,-830.5 118,-773.5 0,-773.5"/>
<text text-anchor="middle" x="59" y="-818.5" font-family="Helvetica,sans-Serif" font-size="10.00">std::shared_ptr&lt; T &gt;</text>
<polyline fill="none" stroke="#bfbfbf" points="0,-811.5 118,-811.5 "/>
<text text-anchor="middle" x="59" y="-799.5" font-family="Helvetica,sans-Serif" font-size="10.00"> </text>
<polyline fill="none" stroke="#bfbfbf" points="0,-792.5 118,-792.5 "/>
<text text-anchor="start" x="8" y="-780.5" font-family="Helvetica,sans-Serif" font-size="10.00">+ operator&#45;&gt;()</text>
</a>
</g>
</g>
<!-- Node7&#45;&gt;Node2 -->
<g id="edge10" class="edge">
<title>Node7&#45;&gt;Node2</title>
<path fill="none" stroke="orange" d="M44.92,-763.86C38.8,-744.52 33,-720.3 33,-698 33,-698 33,-698 33,-442 33,-398.43 71.37,-365.6 106.89,-344.55"/>
<polygon fill="orange" stroke="orange" points="41.65,-765.11 48.12,-773.5 48.29,-762.9 41.65,-765.11"/>
<text text-anchor="middle" x="54.5" y="-573" font-family="Helvetica,sans-Serif" font-size="10.00"> &lt; Tab &gt;</text>
</g>
<!-- Node7&#45;&gt;Node5 -->
<g id="edge6" class="edge">
<title>Node7&#45;&gt;Node5</title>
<path fill="none" stroke="orange" d="M77.89,-764.58C81.95,-757.58 86.41,-750.43 91,-744 95.35,-737.9 100.39,-731.7 105.41,-725.91"/>
<polygon fill="orange" stroke="orange" points="74.84,-762.87 72.98,-773.3 80.94,-766.3 74.84,-762.87"/>
<text text-anchor="middle" x="119" y="-747" font-family="Helvetica,sans-Serif" font-size="10.00"> &lt; Figure &gt;</text>
</g>
<!-- Node8 -->
<g id="node8" class="node">
<title>Node8</title>
<g id="a_node8"><a xlink:title=" ">
<polygon fill="none" stroke="#bfbfbf" points="143.5,-878.5 143.5,-935.5 172.5,-935.5 172.5,-878.5 143.5,-878.5"/>
<text text-anchor="middle" x="158" y="-923.5" font-family="Helvetica,sans-Serif" font-size="10.00">T</text>
<polyline fill="none" stroke="#bfbfbf" points="143.5,-916.5 172.5,-916.5 "/>
<text text-anchor="middle" x="158" y="-904.5" font-family="Helvetica,sans-Serif" font-size="10.00"> </text>
<polyline fill="none" stroke="#bfbfbf" points="143.5,-897.5 172.5,-897.5 "/>
<text text-anchor="middle" x="158" y="-885.5" font-family="Helvetica,sans-Serif" font-size="10.00"> </text>
</a>
</g>
</g>
<!-- Node8&#45;&gt;Node7 -->
<g id="edge7" class="edge">
<title>Node8&#45;&gt;Node7</title>
<path fill="none" stroke="#404040" d="M143.39,-890.8C130.48,-877.36 111.11,-857.22 94.19,-839.61"/>
<polygon fill="none" stroke="#404040" points="93.92,-839.33 86.88,-837.78 85.61,-830.68 92.65,-832.24 93.92,-839.33"/>
<text text-anchor="middle" x="124.5" y="-852" font-family="Helvetica,sans-Serif" font-size="10.00"> +ptr</text>
</g>
<!-- Node9 -->
<g id="node9" class="node">
<title>Node9</title>
<g id="a_node9"><a xlink:title="STL class.">
<polygon fill="none" stroke="#bfbfbf" points="221.5,-668.5 221.5,-725.5 318.5,-725.5 318.5,-668.5 221.5,-668.5"/>
<text text-anchor="middle" x="270" y="-713.5" font-family="Helvetica,sans-Serif" font-size="10.00">std::vector&lt; T &gt;</text>
<polyline fill="none" stroke="#bfbfbf" points="221.5,-706.5 318.5,-706.5 "/>
<text text-anchor="middle" x="270" y="-694.5" font-family="Helvetica,sans-Serif" font-size="10.00"> </text>
<polyline fill="none" stroke="#bfbfbf" points="221.5,-687.5 318.5,-687.5 "/>
<text text-anchor="middle" x="270" y="-675.5" font-family="Helvetica,sans-Serif" font-size="10.00"> </text>
</a>
</g>
</g>
<!-- Node8&#45;&gt;Node9 -->
<g id="edge9" class="edge">
<title>Node8&#45;&gt;Node9</title>
<path fill="none" stroke="#404040" d="M172.51,-889.95C185.18,-875.36 203.44,-852.83 216,-831 233.32,-800.89 247.78,-764.15 257.37,-736.91"/>
<polygon fill="none" stroke="#404040" points="257.39,-736.85 255.57,-729.87 261.3,-725.5 263.13,-732.48 257.39,-736.85"/>
<text text-anchor="middle" x="273" y="-799.5" font-family="Helvetica,sans-Serif" font-size="10.00"> +elements</text>
</g>
<!-- Node9&#45;&gt;Node4 -->
<g id="edge8" class="edge">
<title>Node9&#45;&gt;Node4</title>
<path fill="none" stroke="orange" d="M222.82,-661.8C218.64,-658.02 214.62,-654.06 211,-650 200.24,-637.95 190.55,-622.98 182.94,-609.71"/>
<polygon fill="orange" stroke="orange" points="220.63,-664.53 230.49,-668.42 225.2,-659.23 220.63,-664.53"/>
<text text-anchor="start" x="211" y="-642" font-family="Helvetica,sans-Serif" font-size="10.00"> &lt; std::shared_ptr&lt;</text>
<text text-anchor="middle" x="259" y="-631" font-family="Helvetica,sans-Serif" font-size="10.00"> Figure &gt; &gt;</text>
</g>
<!-- Node9&#45;&gt;Node10 -->
<g id="edge13" class="edge">
<title>Node9&#45;&gt;Node10</title>
<path fill="none" stroke="orange" d="M301.56,-659.93C303.6,-656.69 305.45,-653.36 307,-650 320.95,-619.81 321,-609.75 321,-576.5 321,-576.5 321,-576.5 321,-315 321,-289.75 320.18,-261.21 319.39,-239.73"/>
<polygon fill="orange" stroke="orange" points="298.62,-658.03 295.83,-668.25 304.38,-662 298.62,-658.03"/>
<text text-anchor="start" x="321" y="-446" font-family="Helvetica,sans-Serif" font-size="10.00"> &lt; std::shared_ptr&lt;</text>
<text text-anchor="middle" x="369" y="-435" font-family="Helvetica,sans-Serif" font-size="10.00"> Tab &gt; &gt;</text>
</g>
<!-- Node10&#45;&gt;Node1 -->
<g id="edge11" class="edge">
<title>Node10&#45;&gt;Node1</title>
<path fill="none" stroke="#404040" d="M286.11,-171.32C274.91,-159.67 261.86,-146.09 248.86,-132.57"/>
<polygon fill="none" stroke="#404040" points="248.67,-132.36 241.63,-130.81 240.35,-123.71 247.39,-125.27 248.67,-132.36"/>
<text text-anchor="middle" x="297" y="-145" font-family="Helvetica,sans-Serif" font-size="10.00"> +open_tabs</text>
</g>
</g>
</svg>
