<?xml version="1.0" encoding="UTF-8" standalone="no"?>
<!DOCTYPE svg PUBLIC "-//W3C//DTD SVG 1.1//EN"
 "http://www.w3.org/Graphics/SVG/1.1/DTD/svg11.dtd">
<!-- Generated by graphviz version 2.43.0 (0)
 -->
<!-- Title: println Pages: 1 -->
<!--zoomable 522 -->
<svg id="main" version="1.1" xmlns="http://www.w3.org/2000/svg" xmlns:xlink="http://www.w3.org/1999/xlink" xml:space="preserve" onload="init(evt)">
<style type="text/css"><![CDATA[
.edge:hover path { stroke: red; }
.edge:hover polygon { stroke: red; fill: red; }
]]></style>
<script type="text/javascript"><![CDATA[
var edges = document.getElementsByTagName('g');
if (edges && edges.length) {
  for (var i=0;i<edges.length;i++) {
    if (edges[i].id.substr(0,4)=='edge') {
      edges[i].setAttribute('class','edge');
    }
  }
}
]]></script>
        <defs>
                <circle id="rim" cx="0" cy="0" r="7"/>
                <circle id="rim2" cx="0" cy="0" r="3.5"/>
                <g id="zoomPlus">
                        <use xlink:href="#rim" fill="#404040">
                                <set attributeName="fill" to="#808080" begin="zoomplus.mouseover" end="zoomplus.mouseout"/>
                        </use>
                        <path d="M-4,0h8M0,-4v8" fill="none" stroke="white" stroke-width="1.5" pointer-events="none"/>
                </g>
                <g id="zoomMin">
                        <use xlink:href="#rim" fill="#404040">
                                <set attributeName="fill" to="#808080" begin="zoomminus.mouseover" end="zoomminus.mouseout"/>
                        </use>
                        <path d="M-4,0h8" fill="none" stroke="white" stroke-width="1.5" pointer-events="none"/>
                </g>
                <g id="dirArrow">
                        <path fill="none" stroke="white" stroke-width="1.5" d="M0,-3.0v7 M-2.5,-0.5L0,-3.0L2.5,-0.5"/>
                </g>
               <g id="resetDef">
                       <use xlink:href="#rim2" fill="#404040">
                               <set attributeName="fill" to="#808080" begin="reset.mouseover" end="reset.mouseout"/>
                       </use>
               </g>
        </defs>

<script type="text/javascript">
var viewWidth = 389;
var viewHeight = 522;
var sectionId = 'dynsection-1';
</script>
<script xlink:href="../../svgpan.js"/>
<svg id="graph" class="graph">
<g id="viewport">
<title>println</title>
<!-- Node1 -->
<g id="node1" class="node">
<title>Node1</title>
<g id="a_node1"><a xlink:title="Utility function for printing messages using &lt;fmt&gt; library plus new line character.">
<polygon fill="#bfbfbf" stroke="black" points="333,-247.5 333,-266.5 381,-266.5 381,-247.5 333,-247.5"/>
<text text-anchor="middle" x="357" y="-254.5" font-family="Helvetica,sans-Serif" font-size="10.00">println</text>
</a>
</g>
</g>
<!-- Node2 -->
<g id="node2" class="node">
<title>Node2</title>
<g id="a_node2"><a xlink:href="../../d9/d4b/class_tab.html#a43080d27e488488f372e536d574f4641" target="_top" xlink:title="Method for adding figure to tab content.">
<polygon fill="none" stroke="black" points="185.5,-494.5 185.5,-513.5 275.5,-513.5 275.5,-494.5 185.5,-494.5"/>
<text text-anchor="middle" x="230.5" y="-501.5" font-family="Helvetica,sans-Serif" font-size="10.00">Tab::add_figure</text>
</a>
</g>
</g>
<!-- Node1&#45;&gt;Node2 -->
<g id="edge1" class="edge">
<title>Node1&#45;&gt;Node2</title>
<path fill="none" stroke="midnightblue" d="M353.43,-276.6C346.57,-326.2 326.27,-454.87 297,-485 291.14,-491.03 283.5,-495.18 275.5,-498.02"/>
<polygon fill="midnightblue" stroke="midnightblue" points="356.92,-276.92 354.79,-266.54 349.99,-275.98 356.92,-276.92"/>
</g>
<!-- Node3 -->
<g id="node3" class="node">
<title>Node3</title>
<g id="a_node3"><a xlink:href="../../d9/d0c/class_square.html#abdd8a56d55a6644b930abe1fccbd8b9f" target="_top" xlink:title="implementation of the method for changing the graphic primitive &quot;Square&quot;">
<polygon fill="none" stroke="black" points="184.5,-456.5 184.5,-475.5 276.5,-475.5 276.5,-456.5 184.5,-456.5"/>
<text text-anchor="middle" x="230.5" y="-463.5" font-family="Helvetica,sans-Serif" font-size="10.00">Square::change</text>
</a>
</g>
</g>
<!-- Node1&#45;&gt;Node3 -->
<g id="edge2" class="edge">
<title>Node1&#45;&gt;Node3</title>
<path fill="none" stroke="midnightblue" d="M355.68,-277.35C353.95,-316 344.58,-400.3 297,-447 291.34,-452.56 284.15,-456.51 276.63,-459.31"/>
<polygon fill="midnightblue" stroke="midnightblue" points="359.2,-277.02 356.01,-266.92 352.2,-276.81 359.2,-277.02"/>
</g>
<!-- Node4 -->
<g id="node4" class="node">
<title>Node4</title>
<g id="a_node4"><a xlink:href="../../d0/d88/class_circle.html#affbe64c008c0cb9d1f8132383c85aaf1" target="_top" xlink:title="implementation of the method for changing the graphic primitive &quot;Circle&quot;">
<polygon fill="none" stroke="black" points="187.5,-418.5 187.5,-437.5 273.5,-437.5 273.5,-418.5 187.5,-418.5"/>
<text text-anchor="middle" x="230.5" y="-425.5" font-family="Helvetica,sans-Serif" font-size="10.00">Circle::change</text>
</a>
</g>
</g>
<!-- Node1&#45;&gt;Node4 -->
<g id="edge3" class="edge">
<title>Node1&#45;&gt;Node4</title>
<path fill="none" stroke="midnightblue" d="M353.89,-276.87C349.39,-309.27 335.84,-373.43 297,-409 290.45,-415 282.12,-419.11 273.61,-421.93"/>
<polygon fill="midnightblue" stroke="midnightblue" points="357.38,-277.19 355.13,-266.83 350.43,-276.33 357.38,-277.19"/>
</g>
<!-- Node5 -->
<g id="node5" class="node">
<title>Node5</title>
<g id="a_node5"><a xlink:href="../../d2/d28/class_triangle.html#abecb9709ed463d403a31b4ff3d7b3844" target="_top" xlink:title="implementation of the method for changing the graphic primitive &quot;Triangle&quot;">
<polygon fill="none" stroke="black" points="182.5,-380.5 182.5,-399.5 278.5,-399.5 278.5,-380.5 182.5,-380.5"/>
<text text-anchor="middle" x="230.5" y="-387.5" font-family="Helvetica,sans-Serif" font-size="10.00">Triangle::change</text>
</a>
</g>
</g>
<!-- Node1&#45;&gt;Node5 -->
<g id="edge4" class="edge">
<title>Node1&#45;&gt;Node5</title>
<path fill="none" stroke="midnightblue" d="M351.08,-276.54C343.66,-302.02 327.15,-346.23 297,-371 291.6,-375.43 285.21,-378.83 278.58,-381.44"/>
<polygon fill="midnightblue" stroke="midnightblue" points="354.54,-277.16 353.79,-266.59 347.79,-275.31 354.54,-277.16"/>
</g>
<!-- Node6 -->
<g id="node6" class="node">
<title>Node6</title>
<g id="a_node6"><a xlink:href="../../d9/dc7/class_rectangle.html#a0583e8fc0760a617289fa5902f3dd684" target="_top" xlink:title="implementation of the method for changing the graphic primitive &quot;Rectangle&quot;">
<polygon fill="none" stroke="black" points="177,-342.5 177,-361.5 284,-361.5 284,-342.5 177,-342.5"/>
<text text-anchor="middle" x="230.5" y="-349.5" font-family="Helvetica,sans-Serif" font-size="10.00">Rectangle::change</text>
</a>
</g>
</g>
<!-- Node1&#45;&gt;Node6 -->
<g id="edge5" class="edge">
<title>Node1&#45;&gt;Node6</title>
<path fill="none" stroke="midnightblue" d="M344.93,-275.11C334.38,-291.03 317.14,-313.79 297,-328 288.29,-334.14 277.83,-338.9 267.85,-342.5"/>
<polygon fill="midnightblue" stroke="midnightblue" points="347.9,-276.97 350.34,-266.66 342.01,-273.19 347.9,-276.97"/>
</g>
<!-- Node7 -->
<g id="node7" class="node">
<title>Node7</title>
<g id="a_node7"><a xlink:href="../../dc/d38/class_editor.html#a2a0173545fcc3f7a162e555a3f058e41" target="_top" xlink:title="changing focus to target tab through setting &quot;current_tab&quot; parameter value.">
<polygon fill="none" stroke="black" points="164,-266.5 164,-285.5 297,-285.5 297,-266.5 164,-266.5"/>
<text text-anchor="middle" x="230.5" y="-273.5" font-family="Helvetica,sans-Serif" font-size="10.00">Editor::change_focus_to</text>
</a>
</g>
</g>
<!-- Node1&#45;&gt;Node7 -->
<g id="edge6" class="edge">
<title>Node1&#45;&gt;Node7</title>
<path fill="none" stroke="midnightblue" d="M322.9,-262.05C313.94,-263.42 303.94,-264.94 293.94,-266.47"/>
<polygon fill="midnightblue" stroke="midnightblue" points="323.52,-265.5 332.87,-260.53 322.46,-258.58 323.52,-265.5"/>
</g>
<!-- Node8 -->
<g id="node8" class="node">
<title>Node8</title>
<g id="a_node8"><a xlink:href="../../dc/d38/class_editor.html#ad350995c3add4fc934b22e7172b7cac8" target="_top" xlink:title="closing tab (removing it from open tabs).">
<polygon fill="none" stroke="black" points="15,-294.5 15,-313.5 113,-313.5 113,-294.5 15,-294.5"/>
<text text-anchor="middle" x="64" y="-301.5" font-family="Helvetica,sans-Serif" font-size="10.00">Editor::close_tab</text>
</a>
</g>
</g>
<!-- Node1&#45;&gt;Node8 -->
<g id="edge10" class="edge">
<title>Node1&#45;&gt;Node8</title>
<path fill="none" stroke="midnightblue" d="M337.2,-272.82C326.22,-281.07 311.67,-290.37 297,-295 235.88,-314.28 161.18,-313.08 113.36,-309.4"/>
<polygon fill="midnightblue" stroke="midnightblue" points="339.48,-275.48 345.18,-266.55 335.15,-269.98 339.48,-275.48"/>
</g>
<!-- Node9 -->
<g id="node9" class="node">
<title>Node9</title>
<g id="a_node9"><a xlink:href="../../dc/d38/class_editor.html#a546443cb9f1a9740e3b7d0f03d06e6ad" target="_top" xlink:title="creating new empty tab">
<polygon fill="none" stroke="black" points="0,-247.5 0,-266.5 128,-266.5 128,-247.5 0,-247.5"/>
<text text-anchor="middle" x="64" y="-254.5" font-family="Helvetica,sans-Serif" font-size="10.00">Editor::create_new_tab</text>
</a>
</g>
</g>
<!-- Node1&#45;&gt;Node9 -->
<g id="edge11" class="edge">
<title>Node1&#45;&gt;Node9</title>
<path fill="none" stroke="midnightblue" d="M322.67,-257C275.4,-257 187.99,-257 128.2,-257"/>
<polygon fill="midnightblue" stroke="midnightblue" points="322.68,-260.5 332.68,-257 322.68,-253.5 322.68,-260.5"/>
</g>
<!-- Node10 -->
<g id="node10" class="node">
<title>Node10</title>
<g id="a_node10"><a xlink:href="../../dc/d38/class_editor.html#a0dbd67151109a433f0df1af433a59fd4" target="_top" xlink:title="loading new document to open tabs">
<polygon fill="none" stroke="black" points="16.5,-209.5 16.5,-228.5 111.5,-228.5 111.5,-209.5 16.5,-209.5"/>
<text text-anchor="middle" x="64" y="-216.5" font-family="Helvetica,sans-Serif" font-size="10.00">Editor::open_file</text>
</a>
</g>
</g>
<!-- Node1&#45;&gt;Node10 -->
<g id="edge13" class="edge">
<title>Node1&#45;&gt;Node10</title>
<path fill="none" stroke="midnightblue" d="M322.67,-252.65C270.79,-245.87 170.56,-232.79 111.57,-225.08"/>
<polygon fill="midnightblue" stroke="midnightblue" points="322.31,-256.13 332.68,-253.95 323.22,-249.19 322.31,-256.13"/>
</g>
<!-- Node11 -->
<g id="node11" class="node">
<title>Node11</title>
<g id="a_node11"><a xlink:href="../../dc/d38/class_editor.html#ae208b788b6212af03488814462ae40d6" target="_top" xlink:title="Construct a new Editor:: Editor object.">
<polygon fill="none" stroke="black" points="190.5,-152.5 190.5,-171.5 270.5,-171.5 270.5,-152.5 190.5,-152.5"/>
<text text-anchor="middle" x="230.5" y="-159.5" font-family="Helvetica,sans-Serif" font-size="10.00">Editor::Editor</text>
</a>
</g>
</g>
<!-- Node1&#45;&gt;Node11 -->
<g id="edge12" class="edge">
<title>Node1&#45;&gt;Node11</title>
<path fill="none" stroke="midnightblue" d="M344.93,-238.89C334.38,-222.97 317.14,-200.21 297,-186 288.29,-179.86 277.83,-175.1 267.85,-171.5"/>
<polygon fill="midnightblue" stroke="midnightblue" points="342.01,-240.81 350.34,-247.34 347.9,-237.03 342.01,-240.81"/>
</g>
<!-- Node12 -->
<g id="node12" class="node">
<title>Node12</title>
<g id="a_node12"><a xlink:href="../../d9/d4b/class_tab.html#a13e0298326e32328fd83c79736c93a2f" target="_top" xlink:title="Method for removing figure from tab content, if figure is not in content prints corresponding message...">
<polygon fill="none" stroke="black" points="175.5,-114.5 175.5,-133.5 285.5,-133.5 285.5,-114.5 175.5,-114.5"/>
<text text-anchor="middle" x="230.5" y="-121.5" font-family="Helvetica,sans-Serif" font-size="10.00">Tab::remove_figure</text>
</a>
</g>
</g>
<!-- Node1&#45;&gt;Node12 -->
<g id="edge14" class="edge">
<title>Node1&#45;&gt;Node12</title>
<path fill="none" stroke="midnightblue" d="M351.08,-237.46C343.66,-211.98 327.15,-167.77 297,-143 292.24,-139.09 286.72,-135.99 280.93,-133.52"/>
<polygon fill="midnightblue" stroke="midnightblue" points="347.79,-238.69 353.79,-247.41 354.54,-236.84 347.79,-238.69"/>
</g>
<!-- Node13 -->
<g id="node13" class="node">
<title>Node13</title>
<g id="a_node13"><a xlink:href="../../d9/d4b/class_tab.html#ab6afd14531f3911d8702552a7885f418" target="_top" xlink:title="saving Tab to document">
<polygon fill="none" stroke="black" points="199.5,-76.5 199.5,-95.5 261.5,-95.5 261.5,-76.5 199.5,-76.5"/>
<text text-anchor="middle" x="230.5" y="-83.5" font-family="Helvetica,sans-Serif" font-size="10.00">Tab::save</text>
</a>
</g>
</g>
<!-- Node1&#45;&gt;Node13 -->
<g id="edge15" class="edge">
<title>Node1&#45;&gt;Node13</title>
<path fill="none" stroke="midnightblue" d="M353.89,-237.13C349.39,-204.73 335.84,-140.57 297,-105 287.39,-96.2 273.95,-91.46 261.74,-88.91"/>
<polygon fill="midnightblue" stroke="midnightblue" points="350.43,-237.67 355.13,-247.17 357.38,-236.81 350.43,-237.67"/>
</g>
<!-- Node14 -->
<g id="node14" class="node">
<title>Node14</title>
<g id="a_node14"><a xlink:href="../../dc/d38/class_editor.html#aa544342a3c8f90fe588206ee60652014" target="_top" xlink:title="Starting of abstract editor.">
<polygon fill="none" stroke="black" points="193.5,-38.5 193.5,-57.5 267.5,-57.5 267.5,-38.5 193.5,-38.5"/>
<text text-anchor="middle" x="230.5" y="-45.5" font-family="Helvetica,sans-Serif" font-size="10.00">Editor::start</text>
</a>
</g>
</g>
<!-- Node1&#45;&gt;Node14 -->
<g id="edge16" class="edge">
<title>Node1&#45;&gt;Node14</title>
<path fill="none" stroke="midnightblue" d="M355.68,-236.65C353.95,-198 344.58,-113.7 297,-67 289.14,-59.29 278.35,-54.67 267.79,-51.92"/>
<polygon fill="midnightblue" stroke="midnightblue" points="352.2,-237.19 356.01,-247.08 359.2,-236.98 352.2,-237.19"/>
</g>
<!-- Node15 -->
<g id="node15" class="node">
<title>Node15</title>
<g id="a_node15"><a xlink:href="../../dc/d38/class_editor.html#ab6906e00dd64791b8a8e4cdf8afcaa48" target="_top" xlink:title="Storpping of abstract editor.">
<polygon fill="none" stroke="black" points="194.5,-0.5 194.5,-19.5 266.5,-19.5 266.5,-0.5 194.5,-0.5"/>
<text text-anchor="middle" x="230.5" y="-7.5" font-family="Helvetica,sans-Serif" font-size="10.00">Editor::stop</text>
</a>
</g>
</g>
<!-- Node1&#45;&gt;Node15 -->
<g id="edge17" class="edge">
<title>Node1&#45;&gt;Node15</title>
<path fill="none" stroke="midnightblue" d="M353.43,-237.4C346.57,-187.8 326.27,-59.13 297,-29 289,-20.76 277.66,-16.04 266.65,-13.35"/>
<polygon fill="midnightblue" stroke="midnightblue" points="349.99,-238.02 354.79,-247.46 356.92,-237.08 349.99,-238.02"/>
</g>
<!-- Node7&#45;&gt;Node8 -->
<g id="edge7" class="edge">
<title>Node7&#45;&gt;Node8</title>
<path fill="none" stroke="midnightblue" d="M163.1,-287.3C146.42,-290.14 128.82,-293.14 113.22,-295.79"/>
<polygon fill="midnightblue" stroke="midnightblue" points="164.08,-290.69 173.35,-285.56 162.9,-283.79 164.08,-290.69"/>
</g>
<!-- Node7&#45;&gt;Node9 -->
<g id="edge8" class="edge">
<title>Node7&#45;&gt;Node9</title>
<path fill="none" stroke="midnightblue" d="M153.57,-267.23C145.03,-266.24 136.39,-265.25 128.04,-264.28"/>
<polygon fill="midnightblue" stroke="midnightblue" points="153.2,-270.71 163.54,-268.38 154.01,-263.76 153.2,-270.71"/>
</g>
<!-- Node7&#45;&gt;Node10 -->
<g id="edge9" class="edge">
<title>Node7&#45;&gt;Node10</title>
<path fill="none" stroke="midnightblue" d="M196.01,-262.83C176.32,-255.25 150.88,-245.72 128,-238 118.37,-234.75 107.82,-231.46 98.15,-228.56"/>
<polygon fill="midnightblue" stroke="midnightblue" points="194.87,-266.15 205.46,-266.49 197.4,-259.62 194.87,-266.15"/>
</g>
</g>
</svg>
        <g id="navigator" transform="translate(0 0)" fill="#404254">
                <rect fill="#f2f5e9" fill-opacity="0.5" stroke="#606060" stroke-width=".5" x="0" y="0" width="60" height="60"/>
                <use id="zoomplus" xlink:href="#zoomPlus" x="17" y="9" onmousedown="handleZoom(evt,'in')"/>
                <use id="zoomminus" xlink:href="#zoomMin" x="42" y="9" onmousedown="handleZoom(evt,'out')"/>
                <use id="reset" xlink:href="#resetDef" x="30" y="36" onmousedown="handleReset()"/>
                <g id="arrowUp" xlink:href="#dirArrow" transform="translate(30 24)" onmousedown="handlePan(0,-1)">
                  <use xlink:href="#rim" fill="#404040">
                        <set attributeName="fill" to="#808080" begin="arrowUp.mouseover" end="arrowUp.mouseout"/>
                  </use>
                  <path fill="none" stroke="white" stroke-width="1.5" d="M0,-3.0v7 M-2.5,-0.5L0,-3.0L2.5,-0.5"/>
                </g>
                <g id="arrowRight" xlink:href="#dirArrow" transform="rotate(90) translate(36 -43)" onmousedown="handlePan(1,0)">
                  <use xlink:href="#rim" fill="#404040">
                        <set attributeName="fill" to="#808080" begin="arrowRight.mouseover" end="arrowRight.mouseout"/>
                  </use>
                  <path fill="none" stroke="white" stroke-width="1.5" d="M0,-3.0v7 M-2.5,-0.5L0,-3.0L2.5,-0.5"/>
                </g>
                <g id="arrowDown" xlink:href="#dirArrow" transform="rotate(180) translate(-30 -48)" onmousedown="handlePan(0,1)">
                  <use xlink:href="#rim" fill="#404040">
                        <set attributeName="fill" to="#808080" begin="arrowDown.mouseover" end="arrowDown.mouseout"/>
                  </use>
                  <path fill="none" stroke="white" stroke-width="1.5" d="M0,-3.0v7 M-2.5,-0.5L0,-3.0L2.5,-0.5"/>
                </g>
                <g id="arrowLeft" xlink:href="#dirArrow" transform="rotate(270) translate(-36 17)" onmousedown="handlePan(-1,0)">
                  <use xlink:href="#rim" fill="#404040">
                        <set attributeName="fill" to="#808080" begin="arrowLeft.mouseover" end="arrowLeft.mouseout"/>
                  </use>
                  <path fill="none" stroke="white" stroke-width="1.5" d="M0,-3.0v7 M-2.5,-0.5L0,-3.0L2.5,-0.5"/>
                </g>
        </g>
        <svg viewBox="0 0 15 15" width="100%" height="30px" preserveAspectRatio="xMaxYMin meet">
         <g id="arrow_out" transform="scale(0.3 0.3)">
          <a xlink:href="editor_8cpp_a7187bd2506b183203982bbb35c73483b_icgraph_org.svg" target="_base">
           <rect id="button" ry="5" rx="5" y="6" x="6" height="38" width="38"
                fill="#f2f5e9" fill-opacity="0.5" stroke="#606060" stroke-width="1.0"/>
           <path id="arrow"
             d="M 11.500037,31.436501 C 11.940474,20.09759 22.043105,11.32322 32.158766,21.979434 L 37.068811,17.246167 C 37.068811,17.246167 37.088388,32 37.088388,32 L 22.160133,31.978069 C 22.160133,31.978069 26.997745,27.140456 26.997745,27.140456 C 18.528582,18.264221 13.291696,25.230495 11.500037,31.436501 z"
             style="fill:#404040;"/>
          </a>
         </g>
        </svg>
</svg>
