<?xml version="1.0" encoding="UTF-8" standalone="no"?>
<!DOCTYPE svg PUBLIC "-//W3C//DTD SVG 1.1//EN"
 "http://www.w3.org/Graphics/SVG/1.1/DTD/svg11.dtd">
<!-- Generated by graphviz version 2.43.0 (0)
 -->
<!-- Title: Graphical Class Hierarchy Pages: 1 -->
<svg width="156pt" height="142pt"
 viewBox="0.00 0.00 156.00 142.00" xmlns="http://www.w3.org/2000/svg" xmlns:xlink="http://www.w3.org/1999/xlink">
<g id="graph0" class="graph" transform="scale(1 1) rotate(0) translate(4 138)">
<title>Graphical Class Hierarchy</title>
<!-- Node0 -->
<g id="node1" class="node">
<title>Node0</title>
<g id="a_node1"><a xlink:href="db/db9/class_figure.html" target="_top" xlink:title=" ">
<polygon fill="none" stroke="black" points="0,-57.5 0,-76.5 47,-76.5 47,-57.5 0,-57.5"/>
<text text-anchor="middle" x="23.5" y="-64.5" font-family="Helvetica,sans-Serif" font-size="10.00">Figure</text>
</a>
</g>
</g>
<!-- Node1 -->
<g id="node2" class="node">
<title>Node1</title>
<g id="a_node2"><a xlink:href="d0/d88/class_circle.html" target="_top" xlink:title=" ">
<polygon fill="none" stroke="black" points="93.5,-114.5 93.5,-133.5 137.5,-133.5 137.5,-114.5 93.5,-114.5"/>
<text text-anchor="middle" x="115.5" y="-121.5" font-family="Helvetica,sans-Serif" font-size="10.00">Circle</text>
</a>
</g>
</g>
<!-- Node0&#45;&gt;Node1 -->
<g id="edge1" class="edge">
<title>Node0&#45;&gt;Node1</title>
<path fill="none" stroke="midnightblue" d="M47.27,-82.04C58.05,-89.1 71.13,-97.57 83,-105 87.98,-108.12 93.45,-111.45 98.41,-114.44"/>
<polygon fill="midnightblue" stroke="midnightblue" points="49.12,-79.07 38.84,-76.5 45.28,-84.92 49.12,-79.07"/>
</g>
<!-- Node2 -->
<g id="node3" class="node">
<title>Node2</title>
<g id="a_node3"><a xlink:href="d9/dc7/class_rectangle.html" target="_top" xlink:title=" ">
<polygon fill="none" stroke="black" points="83,-76.5 83,-95.5 148,-95.5 148,-76.5 83,-76.5"/>
<text text-anchor="middle" x="115.5" y="-83.5" font-family="Helvetica,sans-Serif" font-size="10.00">Rectangle</text>
</a>
</g>
</g>
<!-- Node0&#45;&gt;Node2 -->
<g id="edge2" class="edge">
<title>Node0&#45;&gt;Node2</title>
<path fill="none" stroke="midnightblue" d="M57.09,-73.88C65.52,-75.66 74.58,-77.57 82.96,-79.34"/>
<polygon fill="midnightblue" stroke="midnightblue" points="57.72,-70.44 47.21,-71.79 56.27,-77.28 57.72,-70.44"/>
</g>
<!-- Node3 -->
<g id="node4" class="node">
<title>Node3</title>
<g id="a_node4"><a xlink:href="d9/d0c/class_square.html" target="_top" xlink:title=" ">
<polygon fill="none" stroke="black" points="90.5,-38.5 90.5,-57.5 140.5,-57.5 140.5,-38.5 90.5,-38.5"/>
<text text-anchor="middle" x="115.5" y="-45.5" font-family="Helvetica,sans-Serif" font-size="10.00">Square</text>
</a>
</g>
</g>
<!-- Node0&#45;&gt;Node3 -->
<g id="edge3" class="edge">
<title>Node0&#45;&gt;Node3</title>
<path fill="none" stroke="midnightblue" d="M57.25,-60.09C68.14,-57.79 80.08,-55.27 90.22,-53.13"/>
<polygon fill="midnightblue" stroke="midnightblue" points="56.27,-56.72 47.21,-62.21 57.72,-63.56 56.27,-56.72"/>
</g>
<!-- Node4 -->
<g id="node5" class="node">
<title>Node4</title>
<g id="a_node5"><a xlink:href="d2/d28/class_triangle.html" target="_top" xlink:title=" ">
<polygon fill="none" stroke="black" points="88,-0.5 88,-19.5 143,-19.5 143,-0.5 88,-0.5"/>
<text text-anchor="middle" x="115.5" y="-7.5" font-family="Helvetica,sans-Serif" font-size="10.00">Triangle</text>
</a>
</g>
</g>
<!-- Node0&#45;&gt;Node4 -->
<g id="edge4" class="edge">
<title>Node0&#45;&gt;Node4</title>
<path fill="none" stroke="midnightblue" d="M47.27,-51.96C58.05,-44.9 71.13,-36.43 83,-29 87.98,-25.88 93.45,-22.55 98.41,-19.56"/>
<polygon fill="midnightblue" stroke="midnightblue" points="45.28,-49.08 38.84,-57.5 49.12,-54.93 45.28,-49.08"/>
</g>
</g>
</svg>
