<?xml version="1.0" encoding="UTF-8" standalone="no"?>
<!DOCTYPE svg PUBLIC "-//W3C//DTD SVG 1.1//EN"
 "http://www.w3.org/Graphics/SVG/1.1/DTD/svg11.dtd">
<!-- Generated by graphviz version 2.43.0 (0)
 -->
<!-- Title: Editor::create_new_tab Pages: 1 -->
<svg width="389pt" height="47pt"
 viewBox="0.00 0.00 389.00 47.00" xmlns="http://www.w3.org/2000/svg" xmlns:xlink="http://www.w3.org/1999/xlink">
<g id="graph0" class="graph" transform="scale(1 1) rotate(0) translate(4 43)">
<title>Editor::create_new_tab</title>
<!-- Node1 -->
<g id="node1" class="node">
<title>Node1</title>
<g id="a_node1"><a xlink:title="creating new empty tab">
<polygon fill="#bfbfbf" stroke="black" points="0,-0.5 0,-19.5 128,-19.5 128,-0.5 0,-0.5"/>
<text text-anchor="middle" x="64" y="-7.5" font-family="Helvetica,sans-Serif" font-size="10.00">Editor::create_new_tab</text>
</a>
</g>
</g>
<!-- Node2 -->
<g id="node2" class="node">
<title>Node2</title>
<g id="a_node2"><a xlink:href="../../dc/d38/class_editor.html#a2a0173545fcc3f7a162e555a3f058e41" target="_top" xlink:title="changing focus to target tab through setting &quot;current_tab&quot; parameter value.">
<polygon fill="none" stroke="black" points="164,-19.5 164,-38.5 297,-38.5 297,-19.5 164,-19.5"/>
<text text-anchor="middle" x="230.5" y="-26.5" font-family="Helvetica,sans-Serif" font-size="10.00">Editor::change_focus_to</text>
</a>
</g>
</g>
<!-- Node1&#45;&gt;Node2 -->
<g id="edge1" class="edge">
<title>Node1&#45;&gt;Node2</title>
<path fill="none" stroke="midnightblue" d="M128.13,-17.29C136.53,-18.26 145.21,-19.26 153.8,-20.26"/>
<polygon fill="midnightblue" stroke="midnightblue" points="153.48,-23.74 163.81,-21.41 154.28,-16.79 153.48,-23.74"/>
</g>
<!-- Node3 -->
<g id="node3" class="node">
<title>Node3</title>
<g id="a_node3"><a xlink:href="../../d1/d1f/editor_8cpp.html#a7187bd2506b183203982bbb35c73483b" target="_top" xlink:title="Utility function for printing messages using &lt;fmt&gt; library plus new line character.">
<polygon fill="none" stroke="black" points="333,-0.5 333,-19.5 381,-19.5 381,-0.5 333,-0.5"/>
<text text-anchor="middle" x="357" y="-7.5" font-family="Helvetica,sans-Serif" font-size="10.00">println</text>
</a>
</g>
</g>
<!-- Node1&#45;&gt;Node3 -->
<g id="edge3" class="edge">
<title>Node1&#45;&gt;Node3</title>
<path fill="none" stroke="midnightblue" d="M128.14,-10C187.97,-10 275.51,-10 322.77,-10"/>
<polygon fill="midnightblue" stroke="midnightblue" points="322.78,-13.5 332.78,-10 322.78,-6.5 322.78,-13.5"/>
</g>
<!-- Node2&#45;&gt;Node3 -->
<g id="edge2" class="edge">
<title>Node2&#45;&gt;Node3</title>
<path fill="none" stroke="midnightblue" d="M294.11,-19.44C304.04,-17.93 313.95,-16.42 322.84,-15.06"/>
<polygon fill="midnightblue" stroke="midnightblue" points="323.39,-18.52 332.74,-13.55 322.33,-11.6 323.39,-18.52"/>
</g>
</g>
</svg>
