<?xml version="1.0" encoding="UTF-8" standalone="no"?>
<!DOCTYPE svg PUBLIC "-//W3C//DTD SVG 1.1//EN"
 "http://www.w3.org/Graphics/SVG/1.1/DTD/svg11.dtd">
<!-- Generated by graphviz version 2.43.0 (0)
 -->
<!-- Title: Editor::open_file Pages: 1 -->
<svg width="356pt" height="47pt"
 viewBox="0.00 0.00 356.00 47.00" xmlns="http://www.w3.org/2000/svg" xmlns:xlink="http://www.w3.org/1999/xlink">
<g id="graph0" class="graph" transform="scale(1 1) rotate(0) translate(4 43)">
<title>Editor::open_file</title>
<!-- Node1 -->
<g id="node1" class="node">
<title>Node1</title>
<g id="a_node1"><a xlink:title="loading new document to open tabs">
<polygon fill="#bfbfbf" stroke="black" points="0,-0.5 0,-19.5 95,-19.5 95,-0.5 0,-0.5"/>
<text text-anchor="middle" x="47.5" y="-7.5" font-family="Helvetica,sans-Serif" font-size="10.00">Editor::open_file</text>
</a>
</g>
</g>
<!-- Node2 -->
<g id="node2" class="node">
<title>Node2</title>
<g id="a_node2"><a xlink:href="../../dc/d38/class_editor.html#a2a0173545fcc3f7a162e555a3f058e41" target="_top" xlink:title="changing focus to target tab through setting &quot;current_tab&quot; parameter value.">
<polygon fill="none" stroke="black" points="131,-19.5 131,-38.5 264,-38.5 264,-19.5 131,-19.5"/>
<text text-anchor="middle" x="197.5" y="-26.5" font-family="Helvetica,sans-Serif" font-size="10.00">Editor::change_focus_to</text>
</a>
</g>
</g>
<!-- Node1&#45;&gt;Node2 -->
<g id="edge1" class="edge">
<title>Node1&#45;&gt;Node2</title>
<path fill="none" stroke="midnightblue" d="M95.33,-16.01C103.42,-17.05 112.02,-18.15 120.66,-19.26"/>
<polygon fill="midnightblue" stroke="midnightblue" points="120.41,-22.76 130.78,-20.56 121.3,-15.82 120.41,-22.76"/>
</g>
<!-- Node3 -->
<g id="node3" class="node">
<title>Node3</title>
<g id="a_node3"><a xlink:href="../../d1/d1f/editor_8cpp.html#a7187bd2506b183203982bbb35c73483b" target="_top" xlink:title="Utility function for printing messages using &lt;fmt&gt; library plus new line character.">
<polygon fill="none" stroke="black" points="300,-0.5 300,-19.5 348,-19.5 348,-0.5 300,-0.5"/>
<text text-anchor="middle" x="324" y="-7.5" font-family="Helvetica,sans-Serif" font-size="10.00">println</text>
</a>
</g>
</g>
<!-- Node1&#45;&gt;Node3 -->
<g id="edge3" class="edge">
<title>Node1&#45;&gt;Node3</title>
<path fill="none" stroke="midnightblue" d="M95.07,-10C150.24,-10 240.81,-10 289.51,-10"/>
<polygon fill="midnightblue" stroke="midnightblue" points="289.81,-13.5 299.81,-10 289.81,-6.5 289.81,-13.5"/>
</g>
<!-- Node2&#45;&gt;Node3 -->
<g id="edge2" class="edge">
<title>Node2&#45;&gt;Node3</title>
<path fill="none" stroke="midnightblue" d="M261.11,-19.44C271.04,-17.93 280.95,-16.42 289.84,-15.06"/>
<polygon fill="midnightblue" stroke="midnightblue" points="290.39,-18.52 299.74,-13.55 289.33,-11.6 290.39,-18.52"/>
</g>
</g>
</svg>
