<?xml version="1.0" encoding="UTF-8" standalone="no"?>
<!DOCTYPE svg PUBLIC "-//W3C//DTD SVG 1.1//EN"
 "http://www.w3.org/Graphics/SVG/1.1/DTD/svg11.dtd">
<!-- Generated by graphviz version 2.43.0 (0)
 -->
<!-- Title: Editor::change_focus_to Pages: 1 -->
<svg width="305pt" height="104pt"
 viewBox="0.00 0.00 305.00 104.00" xmlns="http://www.w3.org/2000/svg" xmlns:xlink="http://www.w3.org/1999/xlink">
<g id="graph0" class="graph" transform="scale(1 1) rotate(0) translate(4 100)">
<title>Editor::change_focus_to</title>
<!-- Node1 -->
<g id="node1" class="node">
<title>Node1</title>
<g id="a_node1"><a xlink:title="changing focus to target tab through setting &quot;current_tab&quot; parameter value.">
<polygon fill="#bfbfbf" stroke="black" points="164,-38.5 164,-57.5 297,-57.5 297,-38.5 164,-38.5"/>
<text text-anchor="middle" x="230.5" y="-45.5" font-family="Helvetica,sans-Serif" font-size="10.00">Editor::change_focus_to</text>
</a>
</g>
</g>
<!-- Node2 -->
<g id="node2" class="node">
<title>Node2</title>
<g id="a_node2"><a xlink:href="../../dc/d38/class_editor.html#ad350995c3add4fc934b22e7172b7cac8" target="_top" xlink:title="closing tab (removing it from open tabs).">
<polygon fill="none" stroke="black" points="15,-76.5 15,-95.5 113,-95.5 113,-76.5 15,-76.5"/>
<text text-anchor="middle" x="64" y="-83.5" font-family="Helvetica,sans-Serif" font-size="10.00">Editor::close_tab</text>
</a>
</g>
</g>
<!-- Node1&#45;&gt;Node2 -->
<g id="edge1" class="edge">
<title>Node1&#45;&gt;Node2</title>
<path fill="none" stroke="midnightblue" d="M178,-59.9C154.88,-65.24 127.97,-71.45 106.21,-76.48"/>
<polygon fill="midnightblue" stroke="midnightblue" points="179.03,-63.25 187.99,-57.59 177.46,-56.43 179.03,-63.25"/>
</g>
<!-- Node3 -->
<g id="node3" class="node">
<title>Node3</title>
<g id="a_node3"><a xlink:href="../../dc/d38/class_editor.html#a546443cb9f1a9740e3b7d0f03d06e6ad" target="_top" xlink:title="creating new empty tab">
<polygon fill="none" stroke="black" points="0,-38.5 0,-57.5 128,-57.5 128,-38.5 0,-38.5"/>
<text text-anchor="middle" x="64" y="-45.5" font-family="Helvetica,sans-Serif" font-size="10.00">Editor::create_new_tab</text>
</a>
</g>
</g>
<!-- Node1&#45;&gt;Node3 -->
<g id="edge2" class="edge">
<title>Node1&#45;&gt;Node3</title>
<path fill="none" stroke="midnightblue" d="M153.29,-48C144.84,-48 136.3,-48 128.04,-48"/>
<polygon fill="midnightblue" stroke="midnightblue" points="153.54,-51.5 163.54,-48 153.54,-44.5 153.54,-51.5"/>
</g>
<!-- Node4 -->
<g id="node4" class="node">
<title>Node4</title>
<g id="a_node4"><a xlink:href="../../dc/d38/class_editor.html#a0dbd67151109a433f0df1af433a59fd4" target="_top" xlink:title="loading new document to open tabs">
<polygon fill="none" stroke="black" points="16.5,-0.5 16.5,-19.5 111.5,-19.5 111.5,-0.5 16.5,-0.5"/>
<text text-anchor="middle" x="64" y="-7.5" font-family="Helvetica,sans-Serif" font-size="10.00">Editor::open_file</text>
</a>
</g>
</g>
<!-- Node1&#45;&gt;Node4 -->
<g id="edge3" class="edge">
<title>Node1&#45;&gt;Node4</title>
<path fill="none" stroke="midnightblue" d="M178,-36.1C154.88,-30.76 127.97,-24.55 106.21,-19.52"/>
<polygon fill="midnightblue" stroke="midnightblue" points="177.46,-39.57 187.99,-38.41 179.03,-32.75 177.46,-39.57"/>
</g>
</g>
</svg>
