<?xml version="1.0" encoding="UTF-8" standalone="no"?>
<!DOCTYPE svg PUBLIC "-//W3C//DTD SVG 1.1//EN"
 "http://www.w3.org/Graphics/SVG/1.1/DTD/svg11.dtd">
<!-- Generated by graphviz version 2.43.0 (0)
 -->
<!-- Title: Editor::close_tab Pages: 1 -->
<svg width="359pt" height="47pt"
 viewBox="0.00 0.00 359.00 47.00" xmlns="http://www.w3.org/2000/svg" xmlns:xlink="http://www.w3.org/1999/xlink">
<g id="graph0" class="graph" transform="scale(1 1) rotate(0) translate(4 43)">
<title>Editor::close_tab</title>
<!-- Node1 -->
<g id="node1" class="node">
<title>Node1</title>
<g id="a_node1"><a xlink:title="closing tab (removing it from open tabs).">
<polygon fill="#bfbfbf" stroke="black" points="0,-0.5 0,-19.5 98,-19.5 98,-0.5 0,-0.5"/>
<text text-anchor="middle" x="49" y="-7.5" font-family="Helvetica,sans-Serif" font-size="10.00">Editor::close_tab</text>
</a>
</g>
</g>
<!-- Node2 -->
<g id="node2" class="node">
<title>Node2</title>
<g id="a_node2"><a xlink:href="../../dc/d38/class_editor.html#a2a0173545fcc3f7a162e555a3f058e41" target="_top" xlink:title="changing focus to target tab through setting &quot;current_tab&quot; parameter value.">
<polygon fill="none" stroke="black" points="134,-19.5 134,-38.5 267,-38.5 267,-19.5 134,-19.5"/>
<text text-anchor="middle" x="200.5" y="-26.5" font-family="Helvetica,sans-Serif" font-size="10.00">Editor::change_focus_to</text>
</a>
</g>
</g>
<!-- Node1&#45;&gt;Node2 -->
<g id="edge1" class="edge">
<title>Node1&#45;&gt;Node2</title>
<path fill="none" stroke="midnightblue" d="M98.13,-16.12C106.29,-17.15 114.93,-18.25 123.6,-19.35"/>
<polygon fill="midnightblue" stroke="midnightblue" points="123.39,-22.86 133.76,-20.64 124.28,-15.91 123.39,-22.86"/>
</g>
<!-- Node3 -->
<g id="node3" class="node">
<title>Node3</title>
<g id="a_node3"><a xlink:href="../../d1/d1f/editor_8cpp.html#a7187bd2506b183203982bbb35c73483b" target="_top" xlink:title="Utility function for printing messages using &lt;fmt&gt; library plus new line character.">
<polygon fill="none" stroke="black" points="303,-0.5 303,-19.5 351,-19.5 351,-0.5 303,-0.5"/>
<text text-anchor="middle" x="327" y="-7.5" font-family="Helvetica,sans-Serif" font-size="10.00">println</text>
</a>
</g>
</g>
<!-- Node1&#45;&gt;Node3 -->
<g id="edge3" class="edge">
<title>Node1&#45;&gt;Node3</title>
<path fill="none" stroke="midnightblue" d="M98.08,-10C153.79,-10 244.13,-10 292.65,-10"/>
<polygon fill="midnightblue" stroke="midnightblue" points="292.91,-13.5 302.91,-10 292.91,-6.5 292.91,-13.5"/>
</g>
<!-- Node2&#45;&gt;Node3 -->
<g id="edge2" class="edge">
<title>Node2&#45;&gt;Node3</title>
<path fill="none" stroke="midnightblue" d="M264.11,-19.44C274.04,-17.93 283.95,-16.42 292.84,-15.06"/>
<polygon fill="midnightblue" stroke="midnightblue" points="293.39,-18.52 302.74,-13.55 292.33,-11.6 293.39,-18.52"/>
</g>
</g>
</svg>
