<?xml version="1.0" encoding="UTF-8" standalone="no"?>
<!DOCTYPE svg PUBLIC "-//W3C//DTD SVG 1.1//EN"
 "http://www.w3.org/Graphics/SVG/1.1/DTD/svg11.dtd">
<!-- Generated by graphviz version 2.43.0 (0)
 -->
<!-- Title: Tab Pages: 1 -->
<svg width="338pt" height="588pt"
 viewBox="0.00 0.00 337.50 588.00" xmlns="http://www.w3.org/2000/svg" xmlns:xlink="http://www.w3.org/1999/xlink">
<g id="graph0" class="graph" transform="scale(1 1) rotate(0) translate(4 584)">
<title>Tab</title>
<!-- Node1 -->
<g id="node1" class="node">
<title>Node1</title>
<g id="a_node1"><a xlink:title=" ">
<polygon fill="#bfbfbf" stroke="black" points="126.5,-0.5 126.5,-101.5 232.5,-101.5 232.5,-0.5 126.5,-0.5"/>
<text text-anchor="middle" x="179.5" y="-89.5" font-family="Helvetica,sans-Serif" font-size="10.00">Tab</text>
<polyline fill="none" stroke="black" points="126.5,-82.5 232.5,-82.5 "/>
<text text-anchor="middle" x="179.5" y="-70.5" font-family="Helvetica,sans-Serif" font-size="10.00"> </text>
<polyline fill="none" stroke="black" points="126.5,-63.5 232.5,-63.5 "/>
<text text-anchor="start" x="134.5" y="-51.5" font-family="Helvetica,sans-Serif" font-size="10.00">+ Tab()</text>
<text text-anchor="start" x="134.5" y="-40.5" font-family="Helvetica,sans-Serif" font-size="10.00">+ Tab()</text>
<text text-anchor="start" x="134.5" y="-29.5" font-family="Helvetica,sans-Serif" font-size="10.00">+ save()</text>
<text text-anchor="start" x="134.5" y="-18.5" font-family="Helvetica,sans-Serif" font-size="10.00">+ add_figure()</text>
<text text-anchor="start" x="134.5" y="-7.5" font-family="Helvetica,sans-Serif" font-size="10.00">+ remove_figure()</text>
</a>
</g>
</g>
<!-- Node2 -->
<g id="node2" class="node">
<title>Node2</title>
<g id="a_node2"><a xlink:title=" ">
<polygon fill="none" stroke="#bfbfbf" points="112.5,-149.5 112.5,-217.5 246.5,-217.5 246.5,-149.5 112.5,-149.5"/>
<text text-anchor="start" x="120.5" y="-205.5" font-family="Helvetica,sans-Serif" font-size="10.00">std::vector&lt; std::shared</text>
<text text-anchor="middle" x="179.5" y="-194.5" font-family="Helvetica,sans-Serif" font-size="10.00">_ptr&lt; Figure &gt; &gt;</text>
<polyline fill="none" stroke="#bfbfbf" points="112.5,-187.5 246.5,-187.5 "/>
<text text-anchor="middle" x="179.5" y="-175.5" font-family="Helvetica,sans-Serif" font-size="10.00"> </text>
<polyline fill="none" stroke="#bfbfbf" points="112.5,-168.5 246.5,-168.5 "/>
<text text-anchor="middle" x="179.5" y="-156.5" font-family="Helvetica,sans-Serif" font-size="10.00"> </text>
</a>
</g>
</g>
<!-- Node2&#45;&gt;Node1 -->
<g id="edge1" class="edge">
<title>Node2&#45;&gt;Node1</title>
<path fill="none" stroke="#404040" d="M179.5,-149.23C179.5,-138.47 179.5,-126.17 179.5,-114.02"/>
<polygon fill="none" stroke="#404040" points="179.5,-113.98 175.5,-107.98 179.5,-101.98 183.5,-107.98 179.5,-113.98"/>
<text text-anchor="middle" x="204" y="-123" font-family="Helvetica,sans-Serif" font-size="10.00"> +content</text>
</g>
<!-- Node3 -->
<g id="node3" class="node">
<title>Node3</title>
<g id="a_node3"><a xlink:title=" ">
<polygon fill="none" stroke="#bfbfbf" points="54.5,-265.5 54.5,-322.5 196.5,-322.5 196.5,-265.5 54.5,-265.5"/>
<text text-anchor="middle" x="125.5" y="-310.5" font-family="Helvetica,sans-Serif" font-size="10.00">std::shared_ptr&lt; Figure &gt;</text>
<polyline fill="none" stroke="#bfbfbf" points="54.5,-303.5 196.5,-303.5 "/>
<text text-anchor="middle" x="125.5" y="-291.5" font-family="Helvetica,sans-Serif" font-size="10.00"> </text>
<polyline fill="none" stroke="#bfbfbf" points="54.5,-284.5 196.5,-284.5 "/>
<text text-anchor="start" x="62.5" y="-272.5" font-family="Helvetica,sans-Serif" font-size="10.00">+ operator&#45;&gt;()</text>
</a>
</g>
</g>
<!-- Node3&#45;&gt;Node2 -->
<g id="edge2" class="edge">
<title>Node3&#45;&gt;Node2</title>
<path fill="none" stroke="#404040" d="M139.27,-265.34C144.82,-254.19 151.36,-241.04 157.54,-228.63"/>
<polygon fill="none" stroke="#404040" points="157.72,-228.26 156.81,-221.11 163.07,-217.52 163.97,-224.67 157.72,-228.26"/>
<text text-anchor="middle" x="181.5" y="-239" font-family="Helvetica,sans-Serif" font-size="10.00"> +elements</text>
</g>
<!-- Node4 -->
<g id="node4" class="node">
<title>Node4</title>
<g id="a_node4"><a xlink:href="../../db/db9/class_figure.html" target="_top" xlink:title=" ">
<polygon fill="none" stroke="black" points="0,-417.5 0,-474.5 71,-474.5 71,-417.5 0,-417.5"/>
<text text-anchor="middle" x="35.5" y="-462.5" font-family="Helvetica,sans-Serif" font-size="10.00">Figure</text>
<polyline fill="none" stroke="black" points="0,-455.5 71,-455.5 "/>
<text text-anchor="middle" x="35.5" y="-443.5" font-family="Helvetica,sans-Serif" font-size="10.00"> </text>
<polyline fill="none" stroke="black" points="0,-436.5 71,-436.5 "/>
<text text-anchor="start" x="8" y="-424.5" font-family="Helvetica,sans-Serif" font-size="10.00">+ change()</text>
</a>
</g>
</g>
<!-- Node4&#45;&gt;Node3 -->
<g id="edge3" class="edge">
<title>Node4&#45;&gt;Node3</title>
<path fill="none" stroke="#404040" d="M47.75,-417.21C57.65,-395.76 72.54,-365.67 88.5,-341 90.38,-338.1 92.41,-335.16 94.51,-332.25"/>
<polygon fill="none" stroke="#404040" points="94.62,-332.11 95.04,-324.91 101.85,-322.53 101.42,-329.73 94.62,-332.11"/>
<text text-anchor="middle" x="101" y="-367.5" font-family="Helvetica,sans-Serif" font-size="10.00"> +ptr</text>
</g>
<!-- Node5 -->
<g id="node5" class="node">
<title>Node5</title>
<g id="a_node5"><a xlink:title="STL class.">
<polygon fill="none" stroke="#bfbfbf" points="89.5,-417.5 89.5,-474.5 207.5,-474.5 207.5,-417.5 89.5,-417.5"/>
<text text-anchor="middle" x="148.5" y="-462.5" font-family="Helvetica,sans-Serif" font-size="10.00">std::shared_ptr&lt; T &gt;</text>
<polyline fill="none" stroke="#bfbfbf" points="89.5,-455.5 207.5,-455.5 "/>
<text text-anchor="middle" x="148.5" y="-443.5" font-family="Helvetica,sans-Serif" font-size="10.00"> </text>
<polyline fill="none" stroke="#bfbfbf" points="89.5,-436.5 207.5,-436.5 "/>
<text text-anchor="start" x="97.5" y="-424.5" font-family="Helvetica,sans-Serif" font-size="10.00">+ operator&#45;&gt;()</text>
</a>
</g>
</g>
<!-- Node5&#45;&gt;Node3 -->
<g id="edge4" class="edge">
<title>Node5&#45;&gt;Node3</title>
<path fill="none" stroke="orange" d="M124.78,-408.34C123.47,-405.26 122.35,-402.13 121.5,-399 114.68,-373.89 116.79,-344.12 119.95,-322.88"/>
<polygon fill="orange" stroke="orange" points="121.63,-409.87 129.14,-417.34 127.93,-406.82 121.63,-409.87"/>
<text text-anchor="middle" x="149.5" y="-367.5" font-family="Helvetica,sans-Serif" font-size="10.00"> &lt; Figure &gt;</text>
</g>
<!-- Node6 -->
<g id="node6" class="node">
<title>Node6</title>
<g id="a_node6"><a xlink:title=" ">
<polygon fill="none" stroke="#bfbfbf" points="178,-522.5 178,-579.5 207,-579.5 207,-522.5 178,-522.5"/>
<text text-anchor="middle" x="192.5" y="-567.5" font-family="Helvetica,sans-Serif" font-size="10.00">T</text>
<polyline fill="none" stroke="#bfbfbf" points="178,-560.5 207,-560.5 "/>
<text text-anchor="middle" x="192.5" y="-548.5" font-family="Helvetica,sans-Serif" font-size="10.00"> </text>
<polyline fill="none" stroke="#bfbfbf" points="178,-541.5 207,-541.5 "/>
<text text-anchor="middle" x="192.5" y="-529.5" font-family="Helvetica,sans-Serif" font-size="10.00"> </text>
</a>
</g>
</g>
<!-- Node6&#45;&gt;Node5 -->
<g id="edge5" class="edge">
<title>Node6&#45;&gt;Node5</title>
<path fill="none" stroke="#404040" d="M180.71,-522.4C175.92,-511.2 170.31,-498.06 165.13,-485.92"/>
<polygon fill="none" stroke="#404040" points="165.04,-485.71 159,-481.77 160.32,-474.68 166.36,-478.62 165.04,-485.71"/>
<text text-anchor="middle" x="185" y="-496" font-family="Helvetica,sans-Serif" font-size="10.00"> +ptr</text>
</g>
<!-- Node7 -->
<g id="node7" class="node">
<title>Node7</title>
<g id="a_node7"><a xlink:title="STL class.">
<polygon fill="none" stroke="#bfbfbf" points="187,-341.5 187,-398.5 284,-398.5 284,-341.5 187,-341.5"/>
<text text-anchor="middle" x="235.5" y="-386.5" font-family="Helvetica,sans-Serif" font-size="10.00">std::vector&lt; T &gt;</text>
<polyline fill="none" stroke="#bfbfbf" points="187,-379.5 284,-379.5 "/>
<text text-anchor="middle" x="235.5" y="-367.5" font-family="Helvetica,sans-Serif" font-size="10.00"> </text>
<polyline fill="none" stroke="#bfbfbf" points="187,-360.5 284,-360.5 "/>
<text text-anchor="middle" x="235.5" y="-348.5" font-family="Helvetica,sans-Serif" font-size="10.00"> </text>
</a>
</g>
</g>
<!-- Node6&#45;&gt;Node7 -->
<g id="edge7" class="edge">
<title>Node6&#45;&gt;Node7</title>
<path fill="none" stroke="#404040" d="M202.25,-522.46C207,-508.39 212.52,-490.91 216.5,-475 221.79,-453.87 226.26,-429.98 229.53,-410.43"/>
<polygon fill="none" stroke="#404040" points="229.53,-410.42 226.54,-403.86 231.46,-398.58 234.44,-405.14 229.53,-410.42"/>
<text text-anchor="middle" x="240.5" y="-496" font-family="Helvetica,sans-Serif" font-size="10.00"> +elements</text>
</g>
<!-- Node7&#45;&gt;Node2 -->
<g id="edge6" class="edge">
<title>Node7&#45;&gt;Node2</title>
<path fill="none" stroke="orange" d="M233.93,-331.04C231.75,-303.78 226.61,-266.61 214.5,-236 212.03,-229.77 208.71,-223.53 205.09,-217.66"/>
<polygon fill="orange" stroke="orange" points="230.46,-331.6 234.65,-341.33 237.44,-331.11 230.46,-331.6"/>
<text text-anchor="start" x="233.5" y="-297" font-family="Helvetica,sans-Serif" font-size="10.00"> &lt; std::shared_ptr&lt;</text>
<text text-anchor="middle" x="281.5" y="-286" font-family="Helvetica,sans-Serif" font-size="10.00"> Figure &gt; &gt;</text>
</g>
</g>
</svg>
