<?xml version="1.0" encoding="UTF-8" standalone="no"?>
<!DOCTYPE svg PUBLIC "-//W3C//DTD SVG 1.1//EN"
 "http://www.w3.org/Graphics/SVG/1.1/DTD/svg11.dtd">
<!-- Generated by graphviz version 2.43.0 (0)
 -->
<!-- Title: editor.cpp Pages: 1 -->
<svg width="545pt" height="140pt"
 viewBox="0.00 0.00 545.00 140.00" xmlns="http://www.w3.org/2000/svg" xmlns:xlink="http://www.w3.org/1999/xlink">
<g id="graph0" class="graph" transform="scale(1 1) rotate(0) translate(4 136)">
<title>editor.cpp</title>
<!-- Node1 -->
<g id="node1" class="node">
<title>Node1</title>
<g id="a_node1"><a xlink:title=" ">
<polygon fill="#bfbfbf" stroke="black" points="196.5,-112.5 196.5,-131.5 261.5,-131.5 261.5,-112.5 196.5,-112.5"/>
<text text-anchor="middle" x="229" y="-119.5" font-family="Helvetica,sans-Serif" font-size="10.00">editor.cpp</text>
</a>
</g>
</g>
<!-- Node2 -->
<g id="node2" class="node">
<title>Node2</title>
<g id="a_node2"><a xlink:title=" ">
<polygon fill="none" stroke="#bfbfbf" points="0,-56.5 0,-75.5 60,-75.5 60,-56.5 0,-56.5"/>
<text text-anchor="middle" x="30" y="-63.5" font-family="Helvetica,sans-Serif" font-size="10.00">iostream</text>
</a>
</g>
</g>
<!-- Node1&#45;&gt;Node2 -->
<g id="edge1" class="edge">
<title>Node1&#45;&gt;Node2</title>
<path fill="none" stroke="midnightblue" d="M197.47,-112.44C163.01,-103.09 107.71,-88.09 70.17,-77.9"/>
<polygon fill="midnightblue" stroke="midnightblue" points="70.65,-74.4 60.08,-75.16 68.82,-81.16 70.65,-74.4"/>
</g>
<!-- Node3 -->
<g id="node3" class="node">
<title>Node3</title>
<g id="a_node3"><a xlink:title=" ">
<polygon fill="none" stroke="#bfbfbf" points="83.5,-0.5 83.5,-19.5 130.5,-19.5 130.5,-0.5 83.5,-0.5"/>
<text text-anchor="middle" x="107" y="-7.5" font-family="Helvetica,sans-Serif" font-size="10.00">vector</text>
</a>
</g>
</g>
<!-- Node1&#45;&gt;Node3 -->
<g id="edge2" class="edge">
<title>Node1&#45;&gt;Node3</title>
<path fill="none" stroke="midnightblue" d="M196.36,-118.92C167.51,-115.15 127.01,-104.71 107,-76 97.73,-62.7 98.86,-43.87 101.64,-29.9"/>
<polygon fill="midnightblue" stroke="midnightblue" points="105.1,-30.47 104.06,-19.93 98.3,-28.82 105.1,-30.47"/>
</g>
<!-- Node4 -->
<g id="node4" class="node">
<title>Node4</title>
<g id="a_node4"><a xlink:href="../../dd/d60/editor_8h.html" target="_top" xlink:title=" ">
<polygon fill="none" stroke="black" points="116.5,-56.5 116.5,-75.5 169.5,-75.5 169.5,-56.5 116.5,-56.5"/>
<text text-anchor="middle" x="143" y="-63.5" font-family="Helvetica,sans-Serif" font-size="10.00">editor.h</text>
</a>
</g>
</g>
<!-- Node1&#45;&gt;Node4 -->
<g id="edge3" class="edge">
<title>Node1&#45;&gt;Node4</title>
<path fill="none" stroke="midnightblue" d="M215.18,-112.32C201.77,-103.9 181.18,-90.97 165.41,-81.07"/>
<polygon fill="midnightblue" stroke="midnightblue" points="167.11,-78.01 156.78,-75.65 163.39,-83.94 167.11,-78.01"/>
</g>
<!-- Node5 -->
<g id="node5" class="node">
<title>Node5</title>
<g id="a_node5"><a xlink:title=" ">
<polygon fill="none" stroke="#bfbfbf" points="159,-0.5 159,-19.5 217,-19.5 217,-0.5 159,-0.5"/>
<text text-anchor="middle" x="188" y="-7.5" font-family="Helvetica,sans-Serif" font-size="10.00">memory</text>
</a>
</g>
</g>
<!-- Node1&#45;&gt;Node5 -->
<g id="edge9" class="edge">
<title>Node1&#45;&gt;Node5</title>
<path fill="none" stroke="midnightblue" d="M225.78,-112.37C219.14,-94.54 203.76,-53.3 194.81,-29.27"/>
<polygon fill="midnightblue" stroke="midnightblue" points="197.97,-27.74 191.2,-19.59 191.42,-30.18 197.97,-27.74"/>
</g>
<!-- Node6 -->
<g id="node6" class="node">
<title>Node6</title>
<g id="a_node6"><a xlink:title=" ">
<polygon fill="none" stroke="#bfbfbf" points="226.5,-56.5 226.5,-75.5 293.5,-75.5 293.5,-56.5 226.5,-56.5"/>
<text text-anchor="middle" x="260" y="-63.5" font-family="Helvetica,sans-Serif" font-size="10.00">fmt/core.h</text>
</a>
</g>
</g>
<!-- Node1&#45;&gt;Node6 -->
<g id="edge6" class="edge">
<title>Node1&#45;&gt;Node6</title>
<path fill="none" stroke="midnightblue" d="M234.12,-112.08C238.41,-104.61 244.66,-93.72 249.94,-84.52"/>
<polygon fill="midnightblue" stroke="midnightblue" points="253.03,-86.17 254.98,-75.75 246.96,-82.68 253.03,-86.17"/>
</g>
<!-- Node7 -->
<g id="node7" class="node">
<title>Node7</title>
<g id="a_node7"><a xlink:title=" ">
<polygon fill="none" stroke="#bfbfbf" points="311.5,-56.5 311.5,-75.5 390.5,-75.5 390.5,-56.5 311.5,-56.5"/>
<text text-anchor="middle" x="351" y="-63.5" font-family="Helvetica,sans-Serif" font-size="10.00">fmt/format.h</text>
</a>
</g>
</g>
<!-- Node1&#45;&gt;Node7 -->
<g id="edge7" class="edge">
<title>Node1&#45;&gt;Node7</title>
<path fill="none" stroke="midnightblue" d="M248.33,-112.44C268.32,-103.6 299.74,-89.69 322.56,-79.59"/>
<polygon fill="midnightblue" stroke="midnightblue" points="324.03,-82.76 331.76,-75.52 321.2,-76.36 324.03,-82.76"/>
</g>
<!-- Node8 -->
<g id="node8" class="node">
<title>Node8</title>
<g id="a_node8"><a xlink:title=" ">
<polygon fill="none" stroke="#bfbfbf" points="409,-56.5 409,-75.5 473,-75.5 473,-56.5 409,-56.5"/>
<text text-anchor="middle" x="441" y="-63.5" font-family="Helvetica,sans-Serif" font-size="10.00">algorithm</text>
</a>
</g>
</g>
<!-- Node1&#45;&gt;Node8 -->
<g id="edge8" class="edge">
<title>Node1&#45;&gt;Node8</title>
<path fill="none" stroke="midnightblue" d="M261.66,-112.68C298.6,-103.27 358.85,-87.93 399.19,-77.65"/>
<polygon fill="midnightblue" stroke="midnightblue" points="400.17,-81.01 409,-75.15 398.44,-74.23 400.17,-81.01"/>
</g>
<!-- Node9 -->
<g id="node9" class="node">
<title>Node9</title>
<g id="a_node9"><a xlink:title=" ">
<polygon fill="none" stroke="#bfbfbf" points="491,-56.5 491,-75.5 537,-75.5 537,-56.5 491,-56.5"/>
<text text-anchor="middle" x="514" y="-63.5" font-family="Helvetica,sans-Serif" font-size="10.00">cstdio</text>
</a>
</g>
</g>
<!-- Node1&#45;&gt;Node9 -->
<g id="edge10" class="edge">
<title>Node1&#45;&gt;Node9</title>
<path fill="none" stroke="midnightblue" d="M261.55,-116.26C308.13,-109.24 396.62,-95.08 481.23,-75.99"/>
<polygon fill="midnightblue" stroke="midnightblue" points="482.03,-79.4 491,-73.76 480.47,-72.57 482.03,-79.4"/>
</g>
<!-- Node4&#45;&gt;Node3 -->
<g id="edge4" class="edge">
<title>Node4&#45;&gt;Node3</title>
<path fill="none" stroke="midnightblue" d="M137.06,-56.08C132.02,-48.53 124.66,-37.49 118.49,-28.23"/>
<polygon fill="midnightblue" stroke="midnightblue" points="121.29,-26.13 112.83,-19.75 115.47,-30.01 121.29,-26.13"/>
</g>
<!-- Node4&#45;&gt;Node5 -->
<g id="edge5" class="edge">
<title>Node4&#45;&gt;Node5</title>
<path fill="none" stroke="midnightblue" d="M150.43,-56.08C156.85,-48.38 166.31,-37.03 174.12,-27.65"/>
<polygon fill="midnightblue" stroke="midnightblue" points="176.99,-29.67 180.71,-19.75 171.62,-25.19 176.99,-29.67"/>
</g>
</g>
</svg>
