<?xml version="1.0" encoding="UTF-8" standalone="no"?>
<!DOCTYPE svg PUBLIC "-//W3C//DTD SVG 1.1//EN"
 "http://www.w3.org/Graphics/SVG/1.1/DTD/svg11.dtd">
<!-- Generated by graphviz version 2.43.0 (0)
 -->
<!-- Title: Figure Pages: 1 -->
<svg width="346pt" height="160pt"
 viewBox="0.00 0.00 346.00 160.00" xmlns="http://www.w3.org/2000/svg" xmlns:xlink="http://www.w3.org/1999/xlink">
<g id="graph0" class="graph" transform="scale(1 1) rotate(0) translate(4 156)">
<title>Figure</title>
<!-- Node1 -->
<g id="node1" class="node">
<title>Node1</title>
<g id="a_node1"><a xlink:title=" ">
<polygon fill="#bfbfbf" stroke="black" points="133,-94.5 133,-151.5 204,-151.5 204,-94.5 133,-94.5"/>
<text text-anchor="middle" x="168.5" y="-139.5" font-family="Helvetica,sans-Serif" font-size="10.00">Figure</text>
<polyline fill="none" stroke="black" points="133,-132.5 204,-132.5 "/>
<text text-anchor="middle" x="168.5" y="-120.5" font-family="Helvetica,sans-Serif" font-size="10.00"> </text>
<polyline fill="none" stroke="black" points="133,-113.5 204,-113.5 "/>
<text text-anchor="start" x="141" y="-101.5" font-family="Helvetica,sans-Serif" font-size="10.00">+ change()</text>
</a>
</g>
</g>
<!-- Node2 -->
<g id="node2" class="node">
<title>Node2</title>
<g id="a_node2"><a xlink:href="../../d0/d88/class_circle.html" target="_top" xlink:title=" ">
<polygon fill="none" stroke="black" points="0,-0.5 0,-57.5 71,-57.5 71,-0.5 0,-0.5"/>
<text text-anchor="middle" x="35.5" y="-45.5" font-family="Helvetica,sans-Serif" font-size="10.00">Circle</text>
<polyline fill="none" stroke="black" points="0,-38.5 71,-38.5 "/>
<text text-anchor="middle" x="35.5" y="-26.5" font-family="Helvetica,sans-Serif" font-size="10.00"> </text>
<polyline fill="none" stroke="black" points="0,-19.5 71,-19.5 "/>
<text text-anchor="start" x="8" y="-7.5" font-family="Helvetica,sans-Serif" font-size="10.00">+ change()</text>
</a>
</g>
</g>
<!-- Node1&#45;&gt;Node2 -->
<g id="edge1" class="edge">
<title>Node1&#45;&gt;Node2</title>
<path fill="none" stroke="midnightblue" d="M124.57,-91.61C107.27,-79.65 87.65,-66.07 71.24,-54.72"/>
<polygon fill="none" stroke="midnightblue" points="122.64,-94.54 132.86,-97.35 126.63,-88.78 122.64,-94.54"/>
</g>
<!-- Node3 -->
<g id="node3" class="node">
<title>Node3</title>
<g id="a_node3"><a xlink:href="../../d9/dc7/class_rectangle.html" target="_top" xlink:title=" ">
<polygon fill="none" stroke="black" points="89,-0.5 89,-57.5 160,-57.5 160,-0.5 89,-0.5"/>
<text text-anchor="middle" x="124.5" y="-45.5" font-family="Helvetica,sans-Serif" font-size="10.00">Rectangle</text>
<polyline fill="none" stroke="black" points="89,-38.5 160,-38.5 "/>
<text text-anchor="middle" x="124.5" y="-26.5" font-family="Helvetica,sans-Serif" font-size="10.00"> </text>
<polyline fill="none" stroke="black" points="89,-19.5 160,-19.5 "/>
<text text-anchor="start" x="97" y="-7.5" font-family="Helvetica,sans-Serif" font-size="10.00">+ change()</text>
</a>
</g>
</g>
<!-- Node1&#45;&gt;Node3 -->
<g id="edge2" class="edge">
<title>Node1&#45;&gt;Node3</title>
<path fill="none" stroke="midnightblue" d="M150.98,-85.37C146.55,-76.11 141.87,-66.32 137.69,-57.58"/>
<polygon fill="none" stroke="midnightblue" points="147.83,-86.89 155.3,-94.4 154.14,-83.87 147.83,-86.89"/>
</g>
<!-- Node4 -->
<g id="node4" class="node">
<title>Node4</title>
<g id="a_node4"><a xlink:href="../../d9/d0c/class_square.html" target="_top" xlink:title=" ">
<polygon fill="none" stroke="black" points="178,-0.5 178,-57.5 249,-57.5 249,-0.5 178,-0.5"/>
<text text-anchor="middle" x="213.5" y="-45.5" font-family="Helvetica,sans-Serif" font-size="10.00">Square</text>
<polyline fill="none" stroke="black" points="178,-38.5 249,-38.5 "/>
<text text-anchor="middle" x="213.5" y="-26.5" font-family="Helvetica,sans-Serif" font-size="10.00"> </text>
<polyline fill="none" stroke="black" points="178,-19.5 249,-19.5 "/>
<text text-anchor="start" x="186" y="-7.5" font-family="Helvetica,sans-Serif" font-size="10.00">+ change()</text>
</a>
</g>
</g>
<!-- Node1&#45;&gt;Node4 -->
<g id="edge3" class="edge">
<title>Node1&#45;&gt;Node4</title>
<path fill="none" stroke="midnightblue" d="M186.42,-85.37C190.95,-76.11 195.74,-66.32 200.01,-57.58"/>
<polygon fill="none" stroke="midnightblue" points="183.25,-83.88 182,-94.4 189.54,-86.95 183.25,-83.88"/>
</g>
<!-- Node5 -->
<g id="node5" class="node">
<title>Node5</title>
<g id="a_node5"><a xlink:href="../../d2/d28/class_triangle.html" target="_top" xlink:title=" ">
<polygon fill="none" stroke="black" points="267,-0.5 267,-57.5 338,-57.5 338,-0.5 267,-0.5"/>
<text text-anchor="middle" x="302.5" y="-45.5" font-family="Helvetica,sans-Serif" font-size="10.00">Triangle</text>
<polyline fill="none" stroke="black" points="267,-38.5 338,-38.5 "/>
<text text-anchor="middle" x="302.5" y="-26.5" font-family="Helvetica,sans-Serif" font-size="10.00"> </text>
<polyline fill="none" stroke="black" points="267,-19.5 338,-19.5 "/>
<text text-anchor="start" x="275" y="-7.5" font-family="Helvetica,sans-Serif" font-size="10.00">+ change()</text>
</a>
</g>
</g>
<!-- Node1&#45;&gt;Node5 -->
<g id="edge4" class="edge">
<title>Node1&#45;&gt;Node5</title>
<path fill="none" stroke="midnightblue" d="M212.48,-91.81C230.08,-79.72 250.1,-65.98 266.78,-54.53"/>
<polygon fill="none" stroke="midnightblue" points="210.32,-89.04 204.06,-97.59 214.28,-94.81 210.32,-89.04"/>
</g>
</g>
</svg>
